<svg width="38" height="68" viewBox="0 0 38 68" fill="none"
    xmlns="http://www.w3.org/2000/svg">
    <path d="M1 52.809C1 52.2567 0.552285 51.809 0 51.809L0 48.8034C0.552285 48.8034 1 48.3557 1 47.8034L1 45.3007C1 45.1148 1.04744 44.9575 1.12201 44.8281C1.26102 44.5869 1.28822 44.3119 1.21973 44.0632C1.39703 44.2478 1.64474 44.3647 1.92083 44.3702C2.06416 44.3731 2.21648 44.4131 2.36891 44.509L4.25604 45.6965C4.72347 45.9907 5.34086 45.8502 5.635 45.3828L7.71651 46.6926C7.42237 47.1601 7.56284 47.7774 8.03028 48.0716L11.8045 50.4466C12.272 50.7408 12.8893 50.6003 13.1835 50.1329L15.265 51.4427C14.9709 51.9102 15.1113 52.5276 15.5788 52.8217L17.4659 54.0092C18.4049 54.6001 19.5951 54.6001 20.5341 54.0092L22.4212 52.8217C22.8887 52.5276 23.0292 51.9102 22.735 51.4427L24.8165 50.1329C25.1107 50.6003 25.728 50.7408 26.1955 50.4466L29.9697 48.0716C30.4372 47.7774 30.5776 47.1601 30.2835 46.6926L32.365 45.3828C32.6591 45.8502 33.2765 45.9907 33.744 45.6965L35.6311 44.509C35.7835 44.4131 35.9358 44.3731 36.0792 44.3702C36.3553 44.3647 36.603 44.2478 36.7803 44.0632C36.7118 44.3119 36.739 44.5869 36.878 44.8281C36.9526 44.9575 37 45.1147 37 45.3007V47.8034C37 48.3557 37.4477 48.8034 38 48.8034V51.809C37.4477 51.809 37 52.2567 37 52.809V55.3118C37 55.6394 36.833 55.9372 36.5689 56.1034L35.1439 57.0001C34.6765 57.2943 34.536 57.9117 34.8301 58.3791L33.6729 59.1074C33.3787 58.6399 32.7613 58.4994 32.2939 58.7936L29.4439 60.587C28.9765 60.8812 28.836 61.4986 29.1301 61.966L27.9729 62.6943C27.6787 62.2268 27.0613 62.0863 26.5939 62.3805L23.7439 64.1739C23.2765 64.4681 23.136 65.0855 23.4301 65.5529L22.2729 66.2812C21.9787 65.8137 21.3613 65.6732 20.8939 65.9674L19.4689 66.8641C19.181 67.0453 18.819 67.0453 18.5311 66.8641L17.1061 65.9674C16.6387 65.6732 16.0213 65.8137 15.7271 66.2812L14.5699 65.5529C14.864 65.0855 14.7235 64.4681 14.2561 64.1739L11.4061 62.3805C10.9387 62.0863 10.3213 62.2268 10.0271 62.6943L8.86985 61.966C9.164 61.4986 9.02352 60.8812 8.55609 60.587L5.70609 58.7936C5.23865 58.4994 4.62127 58.6399 4.32712 59.1074L3.16985 58.3791C3.464 57.9117 3.32352 57.2943 2.85609 57.0001L1.43109 56.1034C1.167 55.9372 1 55.6394 1 55.3118L1 52.809ZM0.976245 43.635C0.97235 43.631 0.968416 43.627 0.964444 43.623C0.966935 43.6216 0.969427 43.6201 0.971923 43.6187C0.973318 43.6242 0.974761 43.6296 0.976245 43.635ZM37.0238 43.635C37.0252 43.6296 37.0267 43.6242 37.0281 43.6187C37.0306 43.6201 37.0331 43.6216 37.0356 43.623C37.0316 43.627 37.0277 43.631 37.0238 43.635ZM2.36891 1.13896L2.90152 0.292592L2.36892 1.13896L4.25604 2.32649C4.72347 2.62063 5.34086 2.48016 5.635 2.01272L7.71651 3.32257C7.42237 3.79001 7.56284 4.40739 8.03028 4.70154L11.8045 7.07659C12.272 7.37074 12.8893 7.23026 13.1835 6.76283L15.265 8.07268C14.9709 8.54012 15.1113 9.1575 15.5788 9.45165L17.4659 10.6392C18.4049 11.2301 19.5951 11.2301 20.5341 10.6392L22.4212 9.45165C22.8887 9.1575 23.0292 8.54012 22.735 8.07268L24.8165 6.76283C25.1107 7.23026 25.728 7.37074 26.1955 7.07659L29.9697 4.70154C30.4372 4.40739 30.5776 3.79001 30.2835 3.32257L32.365 2.01272C32.6591 2.48015 33.2765 2.62063 33.744 2.32648L35.6311 1.13896C35.7835 1.04303 35.9358 1.00304 36.0792 1.00017C36.3553 0.994633 36.603 0.877713 36.7803 0.693154C36.7118 0.941889 36.739 1.21685 36.878 1.45804C36.9526 1.58743 37 1.7447 37 1.93062V4.43339C37 4.98568 37.4477 5.43339 38 5.43339V8.43893C37.4477 8.43893 37 8.88665 37 9.43893V11.9417C37 12.2693 36.833 12.5672 36.5689 12.7334L35.1439 13.6301C34.6765 13.9242 34.536 14.5416 34.8301 15.0091L33.6729 15.7373C33.3787 15.2699 32.7613 15.1294 32.2939 15.4235L29.4439 17.217C28.9765 17.5111 28.836 18.1285 29.1301 18.596L27.9729 19.3242C27.6787 18.8568 27.0613 18.7163 26.5939 19.0104L23.7439 20.8039C23.2765 21.098 23.136 21.7154 23.4301 22.1828L22.2729 22.9111C21.9787 22.4437 21.3613 22.3032 20.8939 22.5973L19.4689 23.4941C19.181 23.6752 18.819 23.6752 18.5311 23.4941L17.1061 22.5973C16.6387 22.3032 16.0213 22.4437 15.7271 22.9111L14.5699 22.1828C14.864 21.7154 14.7235 21.098 14.2561 20.8039L11.4061 19.0104C10.9387 18.7163 10.3213 18.8568 10.0271 19.3242L8.86985 18.596C9.164 18.1285 9.02352 17.5111 8.55609 17.217L5.70609 15.4235C5.23865 15.1294 4.62127 15.2699 4.32712 15.7373L3.16985 15.0091C3.464 14.5416 3.32352 13.9242 2.85609 13.6301L1.43109 12.7334L0.906644 13.5668L1.43109 12.7334C1.167 12.5672 1 12.2693 1 11.9417L1 9.43893C1 8.88665 0.552285 8.43893 0 8.43893L0 5.43339C0.552285 5.43339 1 4.98568 1 4.43339L1 1.93062C1 1.7447 1.04744 1.58743 1.12201 1.45804C1.26103 1.21686 1.28822 0.941891 1.21973 0.693156C1.39703 0.877714 1.64474 0.994633 1.92083 1.00017C2.06416 1.00304 2.21648 1.04303 2.36891 1.13896ZM37.0238 0.264976C37.0252 0.259557 37.0267 0.25412 37.0281 0.248665C37.0306 0.250083 37.0331 0.251504 37.0356 0.252933C37.0316 0.256918 37.0277 0.260933 37.0238 0.264976ZM1 31.124C1 30.5717 0.552285 30.124 0 30.124L0 27.1184C0.552285 27.1184 1 26.6707 1 26.1184L1 23.6157C1 23.4297 1.04744 23.2725 1.12201 23.1431C1.26103 22.9019 1.28822 22.6269 1.21973 22.3782C1.39703 22.5627 1.64474 22.6797 1.92083 22.6852C2.06416 22.6881 2.21648 22.7281 2.36891 22.824L4.25604 24.0115C4.72347 24.3057 5.34086 24.1652 5.635 23.6977L7.71651 25.0076C7.42237 25.475 7.56284 26.0924 8.03028 26.3866L11.8045 28.7616C12.272 29.0558 12.8893 28.9153 13.1835 28.4479L15.265 29.7577C14.9709 30.2251 15.1113 30.8425 15.5788 31.1367L17.4659 32.3242C18.4049 32.9151 19.5951 32.9151 20.5341 32.3242L22.4212 31.1367C22.8887 30.8425 23.0292 30.2251 22.735 29.7577L24.8165 28.4479C25.1107 28.9153 25.728 29.0558 26.1955 28.7616L29.9697 26.3866C30.4372 26.0924 30.5776 25.475 30.2835 25.0076L32.365 23.6977C32.6591 24.1652 33.2765 24.3057 33.744 24.0115L35.6311 22.824C35.7835 22.7281 35.9358 22.6881 36.0792 22.6852C36.3553 22.6797 36.603 22.5627 36.7803 22.3782C36.7118 22.6269 36.739 22.9019 36.878 23.1431C36.9526 23.2725 37 23.4297 37 23.6156V26.1184C37 26.6707 37.4477 27.1184 38 27.1184V30.124C37.4477 30.124 37 30.5717 37 31.124V33.6267C37 33.9543 36.833 34.2522 36.5689 34.4184L35.1439 35.3151C34.6765 35.6093 34.536 36.2267 34.8301 36.6941L33.6729 37.4223C33.3787 36.9549 32.7613 36.8144 32.2939 37.1086L29.4439 38.902C28.9765 39.1962 28.836 39.8135 29.1301 40.281L27.9729 41.0092C27.6787 40.5418 27.0613 40.4013 26.5939 40.6955L23.7439 42.4889C23.2765 42.7831 23.136 43.4004 23.4301 43.8679L22.2729 44.5961C21.9787 44.1287 21.3613 43.9882 20.8939 44.2824L19.4689 45.1791C19.181 45.3603 18.819 45.3603 18.5311 45.1791L17.1061 44.2824C16.6387 43.9882 16.0213 44.1287 15.7271 44.5961L14.5699 43.8679C14.864 43.4004 14.7235 42.7831 14.2561 42.4889L11.4061 40.6955C10.9387 40.4013 10.3213 40.5418 10.0271 41.0092L8.86985 40.281C9.164 39.8135 9.02352 39.1962 8.55609 38.902L5.70609 37.1086C5.23865 36.8144 4.62127 36.9549 4.32712 37.4223L3.16985 36.6941C3.464 36.2267 3.32352 35.6093 2.85609 35.3151L1.43109 34.4184C1.167 34.2522 1 33.9543 1 33.6267V31.124ZM0.971924 21.9337C0.973318 21.9391 0.974761 21.9446 0.976245 21.95C0.97235 21.946 0.968417 21.9419 0.964445 21.938C0.966936 21.9365 0.969427 21.9351 0.971924 21.9337ZM37.0238 21.95C37.0252 21.9446 37.0267 21.9391 37.0281 21.9337C37.0306 21.9351 37.0331 21.9365 37.0356 21.938C37.0316 21.9419 37.0277 21.946 37.0238 21.95ZM0.97624 0.26497C0.972346 0.260928 0.968413 0.256916 0.964443 0.252933C0.966933 0.251504 0.969427 0.250081 0.971923 0.248663C0.973317 0.254116 0.974756 0.259552 0.97624 0.26497Z" stroke="#11F1F1" stroke-width="2" stroke-linecap="round" stroke-dasharray="4 4"/>
</svg>
