<svg width="104" height="118" viewBox="0 0 104 118" fill="none" xmlns="http://www.w3.org/2000/svg">
<path d="M41.7548 4.91506L45.2516 2.89619L46.5016 5.06125L48.25 4.05181C48.8258 3.71935 49.4341 3.4697 50.0587 3.30237L49.4118 0.887522C51.1066 0.433499 52.8934 0.433499 54.5882 0.887523L53.9413 3.30237C54.5659 3.4697 55.1742 3.71935 55.75 4.05181L57.4984 5.06125L58.7484 2.89619L62.2452 4.91506L60.9952 7.08013L64.492 9.099L65.742 6.93394L69.2388 8.95281L67.9888 11.1179L71.4856 13.1368L72.7356 10.9717L76.2324 12.9906L74.9824 15.1556L78.4792 17.1745L79.7292 15.0094L83.226 17.0283L81.976 19.1934L85.4727 21.2122L86.7227 19.0472L90.2195 21.0661L88.9695 23.2311L92.4663 25.25L93.7163 23.0849L97.2131 25.1038L95.9631 27.2689L97.7115 28.2783C98.2874 28.6108 98.8077 29.0127 99.2649 29.47L101.033 27.7023C102.273 28.943 103.167 30.4905 103.621 32.1852L101.206 32.8324C101.374 33.457 101.462 34.1086 101.462 34.7735V36.7924H103.962V40.8301H101.462V44.8679H103.962V48.9056H101.462V52.9434H103.962V56.9811H101.462V61.0189H103.962V65.0566H101.462V69.0944H103.962V73.1321H101.462V77.1699H103.962V81.2076H101.462V83.2265C101.462 83.8914 101.374 84.543 101.206 85.1676L103.621 85.8148C103.167 87.5095 102.273 89.057 101.033 90.2977L99.2649 88.53C98.8077 88.9873 98.2874 89.3892 97.7115 89.7217L95.9631 90.7311L97.2131 92.8962L93.7163 94.9151L92.4663 92.75L88.9695 94.7689L90.2195 96.9339L86.7227 98.9528L85.4727 96.7878L81.976 98.8066L83.226 100.972L79.7292 102.991L78.4792 100.826L74.9824 102.844L76.2324 105.009L72.7356 107.028L71.4856 104.863L67.9888 106.882L69.2388 109.047L65.742 111.066L64.492 108.901L60.9952 110.92L62.2452 113.085L58.7484 115.104L57.4984 112.939L55.75 113.948C55.1742 114.281 54.5659 114.53 53.9413 114.698L54.5882 117.112C52.8934 117.567 51.1066 117.567 49.4118 117.112L50.0587 114.698C49.4341 114.53 48.8258 114.281 48.25 113.948L46.5016 112.939L45.2516 115.104L41.7548 113.085L43.0048 110.92L39.508 108.901L38.258 111.066L34.7612 109.047L36.0112 106.882L32.5144 104.863L31.2644 107.028L27.7676 105.009L29.0176 102.844L25.5208 100.826L24.2708 102.991L20.774 100.972L22.024 98.8066L18.5273 96.7878L17.2773 98.9528L13.7805 96.9339L15.0305 94.7689L11.5337 92.75L10.2837 94.9151L6.78687 92.8962L8.03687 90.7311L6.28847 89.7217C5.71263 89.3892 5.19232 88.9873 4.7351 88.53L2.96723 90.2977C1.72663 89.057 0.833216 87.5095 0.379001 85.8148L2.79378 85.1676C2.62638 84.543 2.53848 83.8914 2.53848 83.2265V81.2076H0.038475V77.1699H2.53848V73.1321H0.038475V69.0944H2.53848V65.0566H0.038475V61.0189H2.53848V56.9811H0.038475V52.9434H2.53848V48.9056H0.038475V44.8679H2.53848V40.8301H0.038475V36.7924H2.53848V34.7735C2.53848 34.1086 2.62638 33.457 2.79378 32.8324L0.379001 32.1852C0.833217 30.4905 1.72663 28.943 2.96723 27.7023L4.7351 29.47C5.19232 29.0127 5.71263 28.6108 6.28848 28.2783L8.03687 27.2689L6.78687 25.1038L10.2837 23.0849L11.5337 25.25L15.0305 23.2311L13.7805 21.0661L17.2773 19.0472L18.5273 21.2123L22.024 19.1934L20.774 17.0283L24.2708 15.0094L25.5208 17.1745L29.0176 15.1556L27.7676 12.9906L31.2644 10.9717L32.5144 13.1368L36.0112 11.1179L34.7612 8.95281L38.258 6.93394L39.508 9.099L43.0048 7.08013L41.7548 4.91506Z" stroke="url(#paint0_linear_676_42)" stroke-width="5" stroke-dasharray="4 4"/>
<defs>
<linearGradient id="paint0_linear_676_42" x1="52" y1="-1" x2="52" y2="119" gradientUnits="userSpaceOnUse">
<stop stop-color="#11F1F1"/>
<stop offset="1" stop-color="#33FFA8" stop-opacity="0.14"/>
</linearGradient>
</defs>
</svg>
